<svg xmlns="http://www.w3.org/2000/svg" width="960" height="1135" viewBox="0 0 960 1135">
<rect width="960" height="1135" fill="#0a0c10"/>
<text x="22" y="26" font-size="9" fill="#E24B4A" font-family="Courier New, monospace" font-weight="700" letter-spacing="2">CONFIDENTIEL · ANALYSE STRATÉGIQUE</text>
<text x="22" y="54" font-size="17" fill="#f0f2f5" font-family="Courier New, monospace" font-weight="500">Tableau de pression multidimensionnelle</text>
<text x="22" y="74" font-size="11" fill="#4a5568" font-family="Courier New, monospace">Actif valorisé 5,7 Mds € · 2013–2025</text>
<circle cx="27" cy="117" r="5" fill="#378ADD" opacity="0.9"/>
<text x="38" y="121" font-size="10" fill="#7a8394" font-family="Courier New, monospace">Cyber / APT</text>
<circle cx="215" cy="117" r="5" fill="#EF9F27" opacity="0.9"/>
<text x="226" y="121" font-size="10" fill="#7a8394" font-family="Courier New, monospace">Fraude / Saisies</text>
<circle cx="403" cy="117" r="5" fill="#E24B4A" opacity="0.9"/>
<text x="414" y="121" font-size="10" fill="#7a8394" font-family="Courier New, monospace">Grand Banditisme</text>
<circle cx="591" cy="117" r="5" fill="#1D9E75" opacity="0.9"/>
<text x="602" y="121" font-size="10" fill="#7a8394" font-family="Courier New, monospace">Threat Intel</text>
<line x1="0" y1="133" x2="960" y2="133" stroke="#1a1e26" stroke-width="1"/>
<rect x="76" y="133" width="221" height="36" fill="#080f1a"/>
<text x="186" y="155" font-size="9" fill="#378ADD" font-family="Courier New, monospace" font-weight="700" letter-spacing="1.5" text-anchor="middle">CYBER / APT</text>
<rect x="297" y="133" width="221" height="36" fill="#180f00"/>
<text x="407" y="155" font-size="9" fill="#EF9F27" font-family="Courier New, monospace" font-weight="700" letter-spacing="1.5" text-anchor="middle">FRAUDE / SAISIES</text>
<rect x="518" y="133" width="221" height="36" fill="#180808"/>
<text x="628" y="155" font-size="9" fill="#E24B4A" font-family="Courier New, monospace" font-weight="700" letter-spacing="1.5" text-anchor="middle">GRAND BANDITISME</text>
<rect x="739" y="133" width="221" height="36" fill="#041510"/>
<text x="849" y="155" font-size="9" fill="#1D9E75" font-family="Courier New, monospace" font-weight="700" letter-spacing="1.5" text-anchor="middle">THREAT INTEL</text>
<line x1="0" y1="169" x2="960" y2="169" stroke="#1a1e26" stroke-width="1"/>
<rect x="0" y="169" width="960" height="119" fill="#0c0e13"/>
<rect x="76" y="169" width="221" height="119" fill="#080f1a" opacity="0.35"/>
<rect x="297" y="169" width="221" height="119" fill="#180f00" opacity="0.35"/>
<rect x="518" y="169" width="221" height="119" fill="#180808" opacity="0.35"/>
<rect x="739" y="169" width="221" height="119" fill="#041510" opacity="0.35"/>
<line x1="0" y1="288" x2="960" y2="288" stroke="#141820" stroke-width="1"/>
<line x1="297" y1="169" x2="297" y2="288" stroke="#141820" stroke-width="1"/>
<line x1="518" y1="169" x2="518" y2="288" stroke="#141820" stroke-width="1"/>
<line x1="739" y1="169" x2="739" y2="288" stroke="#141820" stroke-width="1"/>
<text x="50" y="233" font-size="12" fill="#6b7789" font-weight="700" text-anchor="end" font-family="Courier New, monospace">2013</text>
<line x1="68" y1="169" x2="68" y2="288" stroke="#1a1e26" stroke-width="1"/>
<circle cx="68" cy="228" r="4" fill="#1e2535" stroke="#3d4756" stroke-width="1.5"/>
<circle cx="68" cy="228" r="1.5" fill="#6b7789"/>
<rect x="304" y="176" width="207" height="50" rx="4" ry="4" fill="#180f00" stroke="#EF9F27" stroke-width="0.5" stroke-opacity="0.4"/>
<rect x="304" y="176" width="3" height="50" rx="1" ry="1" fill="#EF9F27"/>
<text x="317" y="196" font-size="15" font-family="Segoe UI Emoji, Apple Color Emoji, sans-serif" dominant-baseline="middle">👮</text>
<text x="338" y="190" font-size="8.5" fill="#EF9F27" font-family="Courier New, monospace" font-weight="700" letter-spacing="0.5">(1)</text>
<text x="338" y="208" font-size="10.5" fill="#dde1e8" font-family="Courier New, monospace">Signalement TRACFIN</text>
<rect x="304" y="231" width="207" height="50" rx="4" ry="4" fill="#180f00" stroke="#EF9F27" stroke-width="0.5" stroke-opacity="0.4"/>
<rect x="304" y="231" width="3" height="50" rx="1" ry="1" fill="#EF9F27"/>
<text x="317" y="251" font-size="15" font-family="Segoe UI Emoji, Apple Color Emoji, sans-serif" dominant-baseline="middle">🚔</text>
<text x="338" y="245" font-size="8.5" fill="#EF9F27" font-family="Courier New, monospace" font-weight="700" letter-spacing="0.5">(2)</text>
<text x="338" y="263" font-size="10.5" fill="#dde1e8" font-family="Courier New, monospace">Saisie 10k titres</text>
<rect x="0" y="288" width="960" height="64" fill="#0a0c10"/>
<rect x="76" y="288" width="221" height="64" fill="#080f1a" opacity="0.35"/>
<rect x="297" y="288" width="221" height="64" fill="#180f00" opacity="0.35"/>
<rect x="518" y="288" width="221" height="64" fill="#180808" opacity="0.35"/>
<rect x="739" y="288" width="221" height="64" fill="#041510" opacity="0.35"/>
<line x1="0" y1="352" x2="960" y2="352" stroke="#141820" stroke-width="1"/>
<line x1="297" y1="288" x2="297" y2="352" stroke="#141820" stroke-width="1"/>
<line x1="518" y1="288" x2="518" y2="352" stroke="#141820" stroke-width="1"/>
<line x1="739" y1="288" x2="739" y2="352" stroke="#141820" stroke-width="1"/>
<text x="50" y="325" font-size="12" fill="#6b7789" font-weight="700" text-anchor="end" font-family="Courier New, monospace">2014</text>
<line x1="68" y1="288" x2="68" y2="352" stroke="#1a1e26" stroke-width="1"/>
<circle cx="68" cy="320" r="4" fill="#1e2535" stroke="#3d4756" stroke-width="1.5"/>
<circle cx="68" cy="320" r="1.5" fill="#6b7789"/>
<rect x="746" y="295" width="207" height="50" rx="4" ry="4" fill="#041510" stroke="#1D9E75" stroke-width="0.5" stroke-opacity="0.4"/>
<rect x="746" y="295" width="3" height="50" rx="1" ry="1" fill="#1D9E75"/>
<text x="759" y="315" font-size="15" font-family="Segoe UI Emoji, Apple Color Emoji, sans-serif" dominant-baseline="middle">🕵️</text>
<text x="780" y="309" font-size="8.5" fill="#1D9E75" font-family="Courier New, monospace" font-weight="700" letter-spacing="0.5">(3)</text>
<text x="780" y="327" font-size="10.5" fill="#dde1e8" font-family="Courier New, monospace">Alerte Wavestone</text>
<rect x="0" y="352" width="960" height="64" fill="#0c0e13"/>
<rect x="76" y="352" width="221" height="64" fill="#080f1a" opacity="0.35"/>
<rect x="297" y="352" width="221" height="64" fill="#180f00" opacity="0.35"/>
<rect x="518" y="352" width="221" height="64" fill="#180808" opacity="0.35"/>
<rect x="739" y="352" width="221" height="64" fill="#041510" opacity="0.35"/>
<line x1="0" y1="416" x2="960" y2="416" stroke="#141820" stroke-width="1"/>
<line x1="297" y1="352" x2="297" y2="416" stroke="#141820" stroke-width="1"/>
<line x1="518" y1="352" x2="518" y2="416" stroke="#141820" stroke-width="1"/>
<line x1="739" y1="352" x2="739" y2="416" stroke="#141820" stroke-width="1"/>
<text x="50" y="389" font-size="12" fill="#6b7789" font-weight="700" text-anchor="end" font-family="Courier New, monospace">2015</text>
<line x1="68" y1="352" x2="68" y2="416" stroke="#1a1e26" stroke-width="1"/>
<circle cx="68" cy="384" r="4" fill="#1e2535" stroke="#3d4756" stroke-width="1.5"/>
<circle cx="68" cy="384" r="1.5" fill="#6b7789"/>
<rect x="304" y="359" width="207" height="50" rx="4" ry="4" fill="#180f00" stroke="#EF9F27" stroke-width="0.5" stroke-opacity="0.4"/>
<rect x="304" y="359" width="3" height="50" rx="1" ry="1" fill="#EF9F27"/>
<text x="317" y="379" font-size="15" font-family="Segoe UI Emoji, Apple Color Emoji, sans-serif" dominant-baseline="middle">👮</text>
<text x="338" y="373" font-size="8.5" fill="#EF9F27" font-family="Courier New, monospace" font-weight="700" letter-spacing="0.5">(4)</text>
<text x="338" y="391" font-size="10.5" fill="#dde1e8" font-family="Courier New, monospace">Op. Fièvre Jaune</text>
<rect x="525" y="359" width="207" height="50" rx="4" ry="4" fill="#180808" stroke="#E24B4A" stroke-width="0.5" stroke-opacity="0.4"/>
<rect x="525" y="359" width="3" height="50" rx="1" ry="1" fill="#E24B4A"/>
<text x="538" y="379" font-size="15" font-family="Segoe UI Emoji, Apple Color Emoji, sans-serif" dominant-baseline="middle">💣</text>
<text x="559" y="373" font-size="8.5" fill="#E24B4A" font-family="Courier New, monospace" font-weight="700" letter-spacing="0.5">(X)</text>
<text x="559" y="391" font-size="10.5" fill="#dde1e8" font-family="Courier New, monospace">Braquage Nantes #1</text>
<rect x="0" y="416" width="960" height="64" fill="#0a0c10"/>
<rect x="76" y="416" width="221" height="64" fill="#080f1a" opacity="0.35"/>
<rect x="297" y="416" width="221" height="64" fill="#180f00" opacity="0.35"/>
<rect x="518" y="416" width="221" height="64" fill="#180808" opacity="0.35"/>
<rect x="739" y="416" width="221" height="64" fill="#041510" opacity="0.35"/>
<line x1="0" y1="480" x2="960" y2="480" stroke="#141820" stroke-width="1"/>
<line x1="297" y1="416" x2="297" y2="480" stroke="#141820" stroke-width="1"/>
<line x1="518" y1="416" x2="518" y2="480" stroke="#141820" stroke-width="1"/>
<line x1="739" y1="416" x2="739" y2="480" stroke="#141820" stroke-width="1"/>
<text x="50" y="453" font-size="12" fill="#6b7789" font-weight="700" text-anchor="end" font-family="Courier New, monospace">2016</text>
<line x1="68" y1="416" x2="68" y2="480" stroke="#1a1e26" stroke-width="1"/>
<circle cx="68" cy="448" r="4" fill="#1e2535" stroke="#3d4756" stroke-width="1.5"/>
<circle cx="68" cy="448" r="1.5" fill="#6b7789"/>
<rect x="83" y="423" width="207" height="50" rx="4" ry="4" fill="#080f1a" stroke="#378ADD" stroke-width="0.5" stroke-opacity="0.4"/>
<rect x="83" y="423" width="3" height="50" rx="1" ry="1" fill="#378ADD"/>
<text x="96" y="443" font-size="15" font-family="Segoe UI Emoji, Apple Color Emoji, sans-serif" dominant-baseline="middle">🔎</text>
<text x="117" y="437" font-size="8.5" fill="#378ADD" font-family="Courier New, monospace" font-weight="700" letter-spacing="0.5">(5)</text>
<text x="117" y="455" font-size="10.5" fill="#dde1e8" font-family="Courier New, monospace">Surveillance IPS</text>
<rect x="0" y="480" width="960" height="64" fill="#0c0e13"/>
<rect x="76" y="480" width="221" height="64" fill="#080f1a" opacity="0.35"/>
<rect x="297" y="480" width="221" height="64" fill="#180f00" opacity="0.35"/>
<rect x="518" y="480" width="221" height="64" fill="#180808" opacity="0.35"/>
<rect x="739" y="480" width="221" height="64" fill="#041510" opacity="0.35"/>
<line x1="0" y1="544" x2="960" y2="544" stroke="#141820" stroke-width="1"/>
<line x1="297" y1="480" x2="297" y2="544" stroke="#141820" stroke-width="1"/>
<line x1="518" y1="480" x2="518" y2="544" stroke="#141820" stroke-width="1"/>
<line x1="739" y1="480" x2="739" y2="544" stroke="#141820" stroke-width="1"/>
<text x="50" y="517" font-size="12" fill="#6b7789" font-weight="700" text-anchor="end" font-family="Courier New, monospace">2017</text>
<line x1="68" y1="480" x2="68" y2="544" stroke="#1a1e26" stroke-width="1"/>
<circle cx="68" cy="512" r="4" fill="#1e2535" stroke="#3d4756" stroke-width="1.5"/>
<circle cx="68" cy="512" r="1.5" fill="#6b7789"/>
<rect x="83" y="487" width="207" height="50" rx="4" ry="4" fill="#080f1a" stroke="#378ADD" stroke-width="0.5" stroke-opacity="0.4"/>
<rect x="83" y="487" width="3" height="50" rx="1" ry="1" fill="#378ADD"/>
<text x="96" y="507" font-size="15" font-family="Segoe UI Emoji, Apple Color Emoji, sans-serif" dominant-baseline="middle">🏴‍☠️</text>
<text x="117" y="501" font-size="8.5" fill="#378ADD" font-family="Courier New, monospace" font-weight="700" letter-spacing="0.5">(6)</text>
<text x="117" y="519" font-size="10.5" fill="#dde1e8" font-family="Courier New, monospace">Intrusion / Pivots</text>
<rect x="525" y="487" width="207" height="50" rx="4" ry="4" fill="#180808" stroke="#E24B4A" stroke-width="0.5" stroke-opacity="0.4"/>
<rect x="525" y="487" width="3" height="50" rx="1" ry="1" fill="#E24B4A"/>
<text x="538" y="507" font-size="15" font-family="Segoe UI Emoji, Apple Color Emoji, sans-serif" dominant-baseline="middle">💣</text>
<text x="559" y="501" font-size="8.5" fill="#E24B4A" font-family="Courier New, monospace" font-weight="700" letter-spacing="0.5">(Y)</text>
<text x="559" y="519" font-size="10.5" fill="#dde1e8" font-family="Courier New, monospace">Braquage Bagnolet #2</text>
<rect x="0" y="544" width="960" height="64" fill="#0a0c10"/>
<rect x="76" y="544" width="221" height="64" fill="#080f1a" opacity="0.35"/>
<rect x="297" y="544" width="221" height="64" fill="#180f00" opacity="0.35"/>
<rect x="518" y="544" width="221" height="64" fill="#180808" opacity="0.35"/>
<rect x="739" y="544" width="221" height="64" fill="#041510" opacity="0.35"/>
<line x1="0" y1="608" x2="960" y2="608" stroke="#141820" stroke-width="1"/>
<line x1="297" y1="544" x2="297" y2="608" stroke="#141820" stroke-width="1"/>
<line x1="518" y1="544" x2="518" y2="608" stroke="#141820" stroke-width="1"/>
<line x1="739" y1="544" x2="739" y2="608" stroke="#141820" stroke-width="1"/>
<text x="50" y="581" font-size="12" fill="#6b7789" font-weight="700" text-anchor="end" font-family="Courier New, monospace">2018</text>
<line x1="68" y1="544" x2="68" y2="608" stroke="#1a1e26" stroke-width="1"/>
<circle cx="68" cy="576" r="4" fill="#1e2535" stroke="#3d4756" stroke-width="1.5"/>
<circle cx="68" cy="576" r="1.5" fill="#6b7789"/>
<rect x="83" y="551" width="207" height="50" rx="4" ry="4" fill="#080f1a" stroke="#378ADD" stroke-width="0.5" stroke-opacity="0.4"/>
<rect x="83" y="551" width="3" height="50" rx="1" ry="1" fill="#378ADD"/>
<text x="96" y="571" font-size="15" font-family="Segoe UI Emoji, Apple Color Emoji, sans-serif" dominant-baseline="middle">🏴‍☠️</text>
<text x="117" y="565" font-size="8.5" fill="#378ADD" font-family="Courier New, monospace" font-weight="700" letter-spacing="0.5">(7)</text>
<text x="117" y="583" font-size="10.5" fill="#dde1e8" font-family="Courier New, monospace">TTPs origine état</text>
<rect x="0" y="608" width="960" height="64" fill="#0c0e13"/>
<rect x="76" y="608" width="221" height="64" fill="#080f1a" opacity="0.35"/>
<rect x="297" y="608" width="221" height="64" fill="#180f00" opacity="0.35"/>
<rect x="518" y="608" width="221" height="64" fill="#180808" opacity="0.35"/>
<rect x="739" y="608" width="221" height="64" fill="#041510" opacity="0.35"/>
<line x1="0" y1="672" x2="960" y2="672" stroke="#141820" stroke-width="1"/>
<line x1="297" y1="608" x2="297" y2="672" stroke="#141820" stroke-width="1"/>
<line x1="518" y1="608" x2="518" y2="672" stroke="#141820" stroke-width="1"/>
<line x1="739" y1="608" x2="739" y2="672" stroke="#141820" stroke-width="1"/>
<text x="50" y="645" font-size="12" fill="#6b7789" font-weight="700" text-anchor="end" font-family="Courier New, monospace">2019</text>
<line x1="68" y1="608" x2="68" y2="672" stroke="#1a1e26" stroke-width="1"/>
<circle cx="68" cy="640" r="4" fill="#1e2535" stroke="#3d4756" stroke-width="1.5"/>
<circle cx="68" cy="640" r="1.5" fill="#6b7789"/>
<rect x="83" y="615" width="207" height="50" rx="4" ry="4" fill="#080f1a" stroke="#378ADD" stroke-width="0.5" stroke-opacity="0.4"/>
<rect x="83" y="615" width="3" height="50" rx="1" ry="1" fill="#378ADD"/>
<text x="96" y="635" font-size="15" font-family="Segoe UI Emoji, Apple Color Emoji, sans-serif" dominant-baseline="middle">💥</text>
<text x="117" y="629" font-size="8.5" fill="#378ADD" font-family="Courier New, monospace" font-weight="700" letter-spacing="0.5">(8)</text>
<text x="117" y="647" font-size="10.5" fill="#dde1e8" font-family="Courier New, monospace">Attaque infras.</text>
<rect x="0" y="672" width="960" height="64" fill="#0a0c10"/>
<rect x="76" y="672" width="221" height="64" fill="#080f1a" opacity="0.35"/>
<rect x="297" y="672" width="221" height="64" fill="#180f00" opacity="0.35"/>
<rect x="518" y="672" width="221" height="64" fill="#180808" opacity="0.35"/>
<rect x="739" y="672" width="221" height="64" fill="#041510" opacity="0.35"/>
<line x1="0" y1="736" x2="960" y2="736" stroke="#141820" stroke-width="1"/>
<line x1="297" y1="672" x2="297" y2="736" stroke="#141820" stroke-width="1"/>
<line x1="518" y1="672" x2="518" y2="736" stroke="#141820" stroke-width="1"/>
<line x1="739" y1="672" x2="739" y2="736" stroke="#141820" stroke-width="1"/>
<text x="50" y="709" font-size="12" fill="#6b7789" font-weight="700" text-anchor="end" font-family="Courier New, monospace">2020</text>
<line x1="68" y1="672" x2="68" y2="736" stroke="#1a1e26" stroke-width="1"/>
<circle cx="68" cy="704" r="4" fill="#1e2535" stroke="#3d4756" stroke-width="1.5"/>
<circle cx="68" cy="704" r="1.5" fill="#6b7789"/>
<rect x="83" y="679" width="207" height="50" rx="4" ry="4" fill="#080f1a" stroke="#378ADD" stroke-width="0.5" stroke-opacity="0.4"/>
<rect x="83" y="679" width="3" height="50" rx="1" ry="1" fill="#378ADD"/>
<text x="96" y="699" font-size="15" font-family="Segoe UI Emoji, Apple Color Emoji, sans-serif" dominant-baseline="middle">💥</text>
<text x="117" y="693" font-size="8.5" fill="#378ADD" font-family="Courier New, monospace" font-weight="700" letter-spacing="0.5">(9)</text>
<text x="117" y="711" font-size="10.5" fill="#dde1e8" font-family="Courier New, monospace">Rapport Cyber 2020</text>
<rect x="525" y="679" width="207" height="50" rx="4" ry="4" fill="#180808" stroke="#E24B4A" stroke-width="0.5" stroke-opacity="0.4"/>
<rect x="525" y="679" width="3" height="50" rx="1" ry="1" fill="#E24B4A"/>
<text x="538" y="699" font-size="15" font-family="Segoe UI Emoji, Apple Color Emoji, sans-serif" dominant-baseline="middle">🧨</text>
<text x="559" y="693" font-size="8.5" fill="#E24B4A" font-family="Courier New, monospace" font-weight="700" letter-spacing="0.5">(Z)</text>
<text x="559" y="711" font-size="10.5" fill="#dde1e8" font-family="Courier New, monospace">Braquage Reims #3</text>
<rect x="0" y="736" width="960" height="64" fill="#0c0e13"/>
<rect x="76" y="736" width="221" height="64" fill="#080f1a" opacity="0.35"/>
<rect x="297" y="736" width="221" height="64" fill="#180f00" opacity="0.35"/>
<rect x="518" y="736" width="221" height="64" fill="#180808" opacity="0.35"/>
<rect x="739" y="736" width="221" height="64" fill="#041510" opacity="0.35"/>
<line x1="0" y1="800" x2="960" y2="800" stroke="#141820" stroke-width="1"/>
<line x1="297" y1="736" x2="297" y2="800" stroke="#141820" stroke-width="1"/>
<line x1="518" y1="736" x2="518" y2="800" stroke="#141820" stroke-width="1"/>
<line x1="739" y1="736" x2="739" y2="800" stroke="#141820" stroke-width="1"/>
<text x="50" y="773" font-size="12" fill="#6b7789" font-weight="700" text-anchor="end" font-family="Courier New, monospace">2021</text>
<line x1="68" y1="736" x2="68" y2="800" stroke="#1a1e26" stroke-width="1"/>
<circle cx="68" cy="768" r="4" fill="#1e2535" stroke="#3d4756" stroke-width="1.5"/>
<circle cx="68" cy="768" r="1.5" fill="#6b7789"/>
<rect x="746" y="743" width="207" height="50" rx="4" ry="4" fill="#061810" stroke="#5DCAA5" stroke-width="0.5" stroke-opacity="0.4"/>
<rect x="746" y="743" width="3" height="50" rx="1" ry="1" fill="#5DCAA5"/>
<text x="759" y="763" font-size="15" font-family="Segoe UI Emoji, Apple Color Emoji, sans-serif" dominant-baseline="middle">🔍</text>
<text x="780" y="757" font-size="8.5" fill="#5DCAA5" font-family="Courier New, monospace" font-weight="700" letter-spacing="0.5">(10)</text>
<text x="780" y="775" font-size="10.5" fill="#dde1e8" font-family="Courier New, monospace">Microsoft — APT41</text>
<rect x="0" y="800" width="960" height="64" fill="#0a0c10"/>
<rect x="76" y="800" width="221" height="64" fill="#080f1a" opacity="0.35"/>
<rect x="297" y="800" width="221" height="64" fill="#180f00" opacity="0.35"/>
<rect x="518" y="800" width="221" height="64" fill="#180808" opacity="0.35"/>
<rect x="739" y="800" width="221" height="64" fill="#041510" opacity="0.35"/>
<line x1="0" y1="864" x2="960" y2="864" stroke="#141820" stroke-width="1"/>
<line x1="297" y1="800" x2="297" y2="864" stroke="#141820" stroke-width="1"/>
<line x1="518" y1="800" x2="518" y2="864" stroke="#141820" stroke-width="1"/>
<line x1="739" y1="800" x2="739" y2="864" stroke="#141820" stroke-width="1"/>
<text x="50" y="837" font-size="12" fill="#6b7789" font-weight="700" text-anchor="end" font-family="Courier New, monospace">2022</text>
<line x1="68" y1="800" x2="68" y2="864" stroke="#1a1e26" stroke-width="1"/>
<circle cx="68" cy="832" r="4" fill="#1e2535" stroke="#3d4756" stroke-width="1.5"/>
<circle cx="68" cy="832" r="1.5" fill="#6b7789"/>
<rect x="83" y="807" width="207" height="50" rx="4" ry="4" fill="#080f1a" stroke="#378ADD" stroke-width="0.5" stroke-opacity="0.4"/>
<rect x="83" y="807" width="3" height="50" rx="1" ry="1" fill="#378ADD"/>
<text x="96" y="827" font-size="15" font-family="Segoe UI Emoji, Apple Color Emoji, sans-serif" dominant-baseline="middle">🛡️</text>
<text x="117" y="821" font-size="8.5" fill="#378ADD" font-family="Courier New, monospace" font-weight="700" letter-spacing="0.5">(11)</text>
<text x="117" y="839" font-size="10.5" fill="#dde1e8" font-family="Courier New, monospace">1M+ attaques bloquées</text>
<rect x="746" y="807" width="207" height="50" rx="4" ry="4" fill="#041510" stroke="#1D9E75" stroke-width="0.5" stroke-opacity="0.4"/>
<rect x="746" y="807" width="3" height="50" rx="1" ry="1" fill="#1D9E75"/>
<text x="759" y="827" font-size="15" font-family="Segoe UI Emoji, Apple Color Emoji, sans-serif" dominant-baseline="middle">🕵️</text>
<text x="780" y="821" font-size="8.5" fill="#1D9E75" font-family="Courier New, monospace" font-weight="700" letter-spacing="0.5">(12)</text>
<text x="780" y="839" font-size="10.5" fill="#dde1e8" font-family="Courier New, monospace">Rapport Mandiant</text>
<rect x="0" y="864" width="960" height="64" fill="#0c0e13"/>
<rect x="76" y="864" width="221" height="64" fill="#080f1a" opacity="0.35"/>
<rect x="297" y="864" width="221" height="64" fill="#180f00" opacity="0.35"/>
<rect x="518" y="864" width="221" height="64" fill="#180808" opacity="0.35"/>
<rect x="739" y="864" width="221" height="64" fill="#041510" opacity="0.35"/>
<line x1="0" y1="928" x2="960" y2="928" stroke="#141820" stroke-width="1"/>
<line x1="297" y1="864" x2="297" y2="928" stroke="#141820" stroke-width="1"/>
<line x1="518" y1="864" x2="518" y2="928" stroke="#141820" stroke-width="1"/>
<line x1="739" y1="864" x2="739" y2="928" stroke="#141820" stroke-width="1"/>
<text x="50" y="901" font-size="12" fill="#6b7789" font-weight="700" text-anchor="end" font-family="Courier New, monospace">2023</text>
<line x1="68" y1="864" x2="68" y2="928" stroke="#1a1e26" stroke-width="1"/>
<circle cx="68" cy="896" r="4" fill="#1e2535" stroke="#3d4756" stroke-width="1.5"/>
<circle cx="68" cy="896" r="1.5" fill="#6b7789"/>
<rect x="83" y="871" width="207" height="50" rx="4" ry="4" fill="#080f1a" stroke="#378ADD" stroke-width="0.5" stroke-opacity="0.4"/>
<rect x="83" y="871" width="3" height="50" rx="1" ry="1" fill="#378ADD"/>
<text x="96" y="891" font-size="15" font-family="Segoe UI Emoji, Apple Color Emoji, sans-serif" dominant-baseline="middle">🛡️</text>
<text x="117" y="885" font-size="8.5" fill="#378ADD" font-family="Courier New, monospace" font-weight="700" letter-spacing="0.5">(13)</text>
<text x="117" y="903" font-size="10.5" fill="#dde1e8" font-family="Courier New, monospace">0 exfiltration</text>
<rect x="746" y="871" width="207" height="50" rx="4" ry="4" fill="#041510" stroke="#1D9E75" stroke-width="0.5" stroke-opacity="0.4"/>
<rect x="746" y="871" width="3" height="50" rx="1" ry="1" fill="#1D9E75"/>
<text x="759" y="891" font-size="15" font-family="Segoe UI Emoji, Apple Color Emoji, sans-serif" dominant-baseline="middle">🕵️</text>
<text x="780" y="885" font-size="8.5" fill="#1D9E75" font-family="Courier New, monospace" font-weight="700" letter-spacing="0.5">(14)</text>
<text x="780" y="903" font-size="10.5" fill="#dde1e8" font-family="Courier New, monospace">CISA — APT41</text>
<rect x="0" y="928" width="960" height="64" fill="#0a0c10"/>
<rect x="76" y="928" width="221" height="64" fill="#080f1a" opacity="0.35"/>
<rect x="297" y="928" width="221" height="64" fill="#180f00" opacity="0.35"/>
<rect x="518" y="928" width="221" height="64" fill="#180808" opacity="0.35"/>
<rect x="739" y="928" width="221" height="64" fill="#041510" opacity="0.35"/>
<line x1="0" y1="992" x2="960" y2="992" stroke="#141820" stroke-width="1"/>
<line x1="297" y1="928" x2="297" y2="992" stroke="#141820" stroke-width="1"/>
<line x1="518" y1="928" x2="518" y2="992" stroke="#141820" stroke-width="1"/>
<line x1="739" y1="928" x2="739" y2="992" stroke="#141820" stroke-width="1"/>
<text x="50" y="965" font-size="12" fill="#6b7789" font-weight="700" text-anchor="end" font-family="Courier New, monospace">2024</text>
<line x1="68" y1="928" x2="68" y2="992" stroke="#1a1e26" stroke-width="1"/>
<circle cx="68" cy="960" r="4" fill="#1e2535" stroke="#3d4756" stroke-width="1.5"/>
<circle cx="68" cy="960" r="1.5" fill="#6b7789"/>
<rect x="746" y="935" width="207" height="50" rx="4" ry="4" fill="#041510" stroke="#1D9E75" stroke-width="0.5" stroke-opacity="0.4"/>
<rect x="746" y="935" width="3" height="50" rx="1" ry="1" fill="#1D9E75"/>
<text x="759" y="955" font-size="15" font-family="Segoe UI Emoji, Apple Color Emoji, sans-serif" dominant-baseline="middle">📄</text>
<text x="780" y="949" font-size="8.5" fill="#1D9E75" font-family="Courier New, monospace" font-weight="700" letter-spacing="0.5">(15)</text>
<text x="780" y="967" font-size="10.5" fill="#dde1e8" font-family="Courier New, monospace">ANSSI — Logistique</text>
<rect x="0" y="992" width="960" height="119" fill="#0c0e13"/>
<rect x="76" y="992" width="221" height="119" fill="#080f1a" opacity="0.35"/>
<rect x="297" y="992" width="221" height="119" fill="#180f00" opacity="0.35"/>
<rect x="518" y="992" width="221" height="119" fill="#180808" opacity="0.35"/>
<rect x="739" y="992" width="221" height="119" fill="#041510" opacity="0.35"/>
<line x1="0" y1="1111" x2="960" y2="1111" stroke="#141820" stroke-width="1"/>
<line x1="297" y1="992" x2="297" y2="1111" stroke="#141820" stroke-width="1"/>
<line x1="518" y1="992" x2="518" y2="1111" stroke="#141820" stroke-width="1"/>
<line x1="739" y1="992" x2="739" y2="1111" stroke="#141820" stroke-width="1"/>
<text x="50" y="1056" font-size="12" fill="#6b7789" font-weight="700" text-anchor="end" font-family="Courier New, monospace">2025</text>
<line x1="68" y1="992" x2="68" y2="1111" stroke="#1a1e26" stroke-width="1"/>
<circle cx="68" cy="1051" r="4" fill="#1e2535" stroke="#3d4756" stroke-width="1.5"/>
<circle cx="68" cy="1051" r="1.5" fill="#6b7789"/>
<rect x="304" y="999" width="207" height="50" rx="4" ry="4" fill="#180f00" stroke="#EF9F27" stroke-width="0.5" stroke-opacity="0.4"/>
<rect x="304" y="999" width="3" height="50" rx="1" ry="1" fill="#EF9F27"/>
<text x="317" y="1019" font-size="15" font-family="Segoe UI Emoji, Apple Color Emoji, sans-serif" dominant-baseline="middle">🚔</text>
<text x="338" y="1013" font-size="8.5" fill="#EF9F27" font-family="Courier New, monospace" font-weight="700" letter-spacing="0.5">(16)</text>
<text x="338" y="1031" font-size="10.5" fill="#dde1e8" font-family="Courier New, monospace">Saisie 66 kg (Chine)</text>
<rect x="304" y="1054" width="207" height="50" rx="4" ry="4" fill="#180f00" stroke="#EF9F27" stroke-width="0.5" stroke-opacity="0.4"/>
<rect x="304" y="1054" width="3" height="50" rx="1" ry="1" fill="#EF9F27"/>
<text x="317" y="1074" font-size="15" font-family="Segoe UI Emoji, Apple Color Emoji, sans-serif" dominant-baseline="middle">👮</text>
<text x="338" y="1068" font-size="8.5" fill="#EF9F27" font-family="Courier New, monospace" font-weight="700" letter-spacing="0.5">(17)</text>
<text x="338" y="1086" font-size="10.5" fill="#dde1e8" font-family="Courier New, monospace">Synthèse ONAF</text>
<line x1="0" y1="1115" x2="960" y2="1115" stroke="#1a1e26" stroke-width="0.5"/>
<text x="944" y="1129" font-size="9" fill="#252c38" text-anchor="end" font-family="Courier New, monospace">Pression Multidimensionnelle · Actif 5,7 Mds€ · 2013–2025</text>
</svg>