<svg xmlns="http://www.w3.org/2000/svg" width="960" height="772" viewBox="0 0 960 772">
<rect width="960" height="772" fill="#0a0c10"/>
<text x="20" y="28" font-size="16" fill="#f0f2f5" font-family="Courier New, monospace" font-weight="500">Tableau de pression multidimensionnelle</text>
<text x="20" y="46" font-size="10" fill="#4a5568" font-family="Courier New, monospace">Actif valorisé 5,7 Mds € · 2013–2025</text>
<circle cx="24" cy="70" r="4" fill="#378ADD" opacity="0.9"/>
<text x="33" y="74" font-size="9.5" fill="#7a8394" font-family="Courier New, monospace">Cyber / APT</text>
<circle cx="214" cy="70" r="4" fill="#EF9F27" opacity="0.9"/>
<text x="223" y="74" font-size="9.5" fill="#7a8394" font-family="Courier New, monospace">Fraude / Saisies</text>
<circle cx="404" cy="70" r="4" fill="#E24B4A" opacity="0.9"/>
<text x="413" y="74" font-size="9.5" fill="#7a8394" font-family="Courier New, monospace">Grand Banditisme</text>
<circle cx="594" cy="70" r="4" fill="#1D9E75" opacity="0.9"/>
<text x="603" y="74" font-size="9.5" fill="#7a8394" font-family="Courier New, monospace">Threat Intel</text>
<line x1="0" y1="82" x2="960" y2="82" stroke="#1a1e26" stroke-width="1"/>
<rect x="66" y="82" width="223" height="28" fill="#080f1a"/>
<text x="177" y="100" font-size="8.5" fill="#378ADD" font-family="Courier New, monospace" font-weight="700" letter-spacing="1.5" text-anchor="middle">CYBER / APT</text>
<rect x="289" y="82" width="223" height="28" fill="#180f00"/>
<text x="400" y="100" font-size="8.5" fill="#EF9F27" font-family="Courier New, monospace" font-weight="700" letter-spacing="1.5" text-anchor="middle">FRAUDE / SAISIES</text>
<rect x="512" y="82" width="223" height="28" fill="#180808"/>
<text x="623" y="100" font-size="8.5" fill="#E24B4A" font-family="Courier New, monospace" font-weight="700" letter-spacing="1.5" text-anchor="middle">GRAND BANDITISME</text>
<rect x="735" y="82" width="223" height="28" fill="#041510"/>
<text x="846" y="100" font-size="8.5" fill="#1D9E75" font-family="Courier New, monospace" font-weight="700" letter-spacing="1.5" text-anchor="middle">THREAT INTEL</text>
<line x1="0" y1="110" x2="960" y2="110" stroke="#1a1e26" stroke-width="1"/>
<rect x="0" y="110" width="960" height="81" fill="#0c0e13"/>
<rect x="66" y="110" width="223" height="81" fill="#080f1a" opacity="0.3"/>
<rect x="289" y="110" width="223" height="81" fill="#180f00" opacity="0.3"/>
<rect x="512" y="110" width="223" height="81" fill="#180808" opacity="0.3"/>
<rect x="735" y="110" width="223" height="81" fill="#041510" opacity="0.3"/>
<line x1="0" y1="191" x2="960" y2="191" stroke="#141820" stroke-width="1"/>
<line x1="289" y1="110" x2="289" y2="191" stroke="#141820" stroke-width="1"/>
<line x1="512" y1="110" x2="512" y2="191" stroke="#141820" stroke-width="1"/>
<line x1="735" y1="110" x2="735" y2="191" stroke="#141820" stroke-width="1"/>
<text x="44" y="154" font-size="11" fill="#6b7789" font-weight="700" text-anchor="end" font-family="Courier New, monospace">2013</text>
<line x1="59" y1="110" x2="59" y2="191" stroke="#1a1e26" stroke-width="1"/>
<circle cx="59" cy="150" r="3.5" fill="#1e2535" stroke="#3d4756" stroke-width="1.5"/>
<circle cx="59" cy="150" r="1.2" fill="#6b7789"/>
<rect x="294" y="115" width="213" height="34" rx="3" fill="#180f00" stroke="#EF9F27" stroke-width="0.5" stroke-opacity="0.35"/>
<rect x="294" y="115" width="3" height="34" rx="1" fill="#EF9F27"/>
<text x="305" y="130" font-size="13" font-family="Segoe UI Emoji, Apple Color Emoji, sans-serif" dominant-baseline="middle">👮</text>
<text x="322" y="127" font-size="8" fill="#EF9F27" font-family="Courier New, monospace" font-weight="700">(1)</text>
<text x="322" y="141" font-size="9.5" fill="#cdd2db" font-family="Courier New, monospace">Signalement TRACFIN</text>
<rect x="294" y="152" width="213" height="34" rx="3" fill="#180f00" stroke="#EF9F27" stroke-width="0.5" stroke-opacity="0.35"/>
<rect x="294" y="152" width="3" height="34" rx="1" fill="#EF9F27"/>
<text x="305" y="167" font-size="13" font-family="Segoe UI Emoji, Apple Color Emoji, sans-serif" dominant-baseline="middle">🚔</text>
<text x="322" y="164" font-size="8" fill="#EF9F27" font-family="Courier New, monospace" font-weight="700">(2)</text>
<text x="322" y="178" font-size="9.5" fill="#cdd2db" font-family="Courier New, monospace">Saisie 10k titres</text>
<rect x="0" y="191" width="960" height="44" fill="#0a0c10"/>
<rect x="66" y="191" width="223" height="44" fill="#080f1a" opacity="0.3"/>
<rect x="289" y="191" width="223" height="44" fill="#180f00" opacity="0.3"/>
<rect x="512" y="191" width="223" height="44" fill="#180808" opacity="0.3"/>
<rect x="735" y="191" width="223" height="44" fill="#041510" opacity="0.3"/>
<line x1="0" y1="235" x2="960" y2="235" stroke="#141820" stroke-width="1"/>
<line x1="289" y1="191" x2="289" y2="235" stroke="#141820" stroke-width="1"/>
<line x1="512" y1="191" x2="512" y2="235" stroke="#141820" stroke-width="1"/>
<line x1="735" y1="191" x2="735" y2="235" stroke="#141820" stroke-width="1"/>
<text x="44" y="217" font-size="11" fill="#6b7789" font-weight="700" text-anchor="end" font-family="Courier New, monospace">2014</text>
<line x1="59" y1="191" x2="59" y2="235" stroke="#1a1e26" stroke-width="1"/>
<circle cx="59" cy="213" r="3.5" fill="#1e2535" stroke="#3d4756" stroke-width="1.5"/>
<circle cx="59" cy="213" r="1.2" fill="#6b7789"/>
<rect x="740" y="196" width="213" height="34" rx="3" fill="#041510" stroke="#1D9E75" stroke-width="0.5" stroke-opacity="0.35"/>
<rect x="740" y="196" width="3" height="34" rx="1" fill="#1D9E75"/>
<text x="751" y="211" font-size="13" font-family="Segoe UI Emoji, Apple Color Emoji, sans-serif" dominant-baseline="middle">🕵️</text>
<text x="768" y="208" font-size="8" fill="#1D9E75" font-family="Courier New, monospace" font-weight="700">(3)</text>
<text x="768" y="222" font-size="9.5" fill="#cdd2db" font-family="Courier New, monospace">Alerte Wavestone</text>
<rect x="0" y="235" width="960" height="44" fill="#0c0e13"/>
<rect x="66" y="235" width="223" height="44" fill="#080f1a" opacity="0.3"/>
<rect x="289" y="235" width="223" height="44" fill="#180f00" opacity="0.3"/>
<rect x="512" y="235" width="223" height="44" fill="#180808" opacity="0.3"/>
<rect x="735" y="235" width="223" height="44" fill="#041510" opacity="0.3"/>
<line x1="0" y1="279" x2="960" y2="279" stroke="#141820" stroke-width="1"/>
<line x1="289" y1="235" x2="289" y2="279" stroke="#141820" stroke-width="1"/>
<line x1="512" y1="235" x2="512" y2="279" stroke="#141820" stroke-width="1"/>
<line x1="735" y1="235" x2="735" y2="279" stroke="#141820" stroke-width="1"/>
<text x="44" y="261" font-size="11" fill="#6b7789" font-weight="700" text-anchor="end" font-family="Courier New, monospace">2015</text>
<line x1="59" y1="235" x2="59" y2="279" stroke="#1a1e26" stroke-width="1"/>
<circle cx="59" cy="257" r="3.5" fill="#1e2535" stroke="#3d4756" stroke-width="1.5"/>
<circle cx="59" cy="257" r="1.2" fill="#6b7789"/>
<rect x="294" y="240" width="213" height="34" rx="3" fill="#180f00" stroke="#EF9F27" stroke-width="0.5" stroke-opacity="0.35"/>
<rect x="294" y="240" width="3" height="34" rx="1" fill="#EF9F27"/>
<text x="305" y="255" font-size="13" font-family="Segoe UI Emoji, Apple Color Emoji, sans-serif" dominant-baseline="middle">👮</text>
<text x="322" y="252" font-size="8" fill="#EF9F27" font-family="Courier New, monospace" font-weight="700">(4)</text>
<text x="322" y="266" font-size="9.5" fill="#cdd2db" font-family="Courier New, monospace">Op. Fièvre Jaune</text>
<rect x="517" y="240" width="213" height="34" rx="3" fill="#180808" stroke="#E24B4A" stroke-width="0.5" stroke-opacity="0.35"/>
<rect x="517" y="240" width="3" height="34" rx="1" fill="#E24B4A"/>
<text x="528" y="255" font-size="13" font-family="Segoe UI Emoji, Apple Color Emoji, sans-serif" dominant-baseline="middle">💣</text>
<text x="545" y="252" font-size="8" fill="#E24B4A" font-family="Courier New, monospace" font-weight="700">(X)</text>
<text x="545" y="266" font-size="9.5" fill="#cdd2db" font-family="Courier New, monospace">Braquage Nantes #1</text>
<rect x="0" y="279" width="960" height="44" fill="#0a0c10"/>
<rect x="66" y="279" width="223" height="44" fill="#080f1a" opacity="0.3"/>
<rect x="289" y="279" width="223" height="44" fill="#180f00" opacity="0.3"/>
<rect x="512" y="279" width="223" height="44" fill="#180808" opacity="0.3"/>
<rect x="735" y="279" width="223" height="44" fill="#041510" opacity="0.3"/>
<line x1="0" y1="323" x2="960" y2="323" stroke="#141820" stroke-width="1"/>
<line x1="289" y1="279" x2="289" y2="323" stroke="#141820" stroke-width="1"/>
<line x1="512" y1="279" x2="512" y2="323" stroke="#141820" stroke-width="1"/>
<line x1="735" y1="279" x2="735" y2="323" stroke="#141820" stroke-width="1"/>
<text x="44" y="305" font-size="11" fill="#6b7789" font-weight="700" text-anchor="end" font-family="Courier New, monospace">2016</text>
<line x1="59" y1="279" x2="59" y2="323" stroke="#1a1e26" stroke-width="1"/>
<circle cx="59" cy="301" r="3.5" fill="#1e2535" stroke="#3d4756" stroke-width="1.5"/>
<circle cx="59" cy="301" r="1.2" fill="#6b7789"/>
<rect x="71" y="284" width="213" height="34" rx="3" fill="#080f1a" stroke="#378ADD" stroke-width="0.5" stroke-opacity="0.35"/>
<rect x="71" y="284" width="3" height="34" rx="1" fill="#378ADD"/>
<text x="82" y="299" font-size="13" font-family="Segoe UI Emoji, Apple Color Emoji, sans-serif" dominant-baseline="middle">🔎</text>
<text x="99" y="296" font-size="8" fill="#378ADD" font-family="Courier New, monospace" font-weight="700">(5)</text>
<text x="99" y="310" font-size="9.5" fill="#cdd2db" font-family="Courier New, monospace">Surveillance IPS</text>
<rect x="0" y="323" width="960" height="44" fill="#0c0e13"/>
<rect x="66" y="323" width="223" height="44" fill="#080f1a" opacity="0.3"/>
<rect x="289" y="323" width="223" height="44" fill="#180f00" opacity="0.3"/>
<rect x="512" y="323" width="223" height="44" fill="#180808" opacity="0.3"/>
<rect x="735" y="323" width="223" height="44" fill="#041510" opacity="0.3"/>
<line x1="0" y1="367" x2="960" y2="367" stroke="#141820" stroke-width="1"/>
<line x1="289" y1="323" x2="289" y2="367" stroke="#141820" stroke-width="1"/>
<line x1="512" y1="323" x2="512" y2="367" stroke="#141820" stroke-width="1"/>
<line x1="735" y1="323" x2="735" y2="367" stroke="#141820" stroke-width="1"/>
<text x="44" y="349" font-size="11" fill="#6b7789" font-weight="700" text-anchor="end" font-family="Courier New, monospace">2017</text>
<line x1="59" y1="323" x2="59" y2="367" stroke="#1a1e26" stroke-width="1"/>
<circle cx="59" cy="345" r="3.5" fill="#1e2535" stroke="#3d4756" stroke-width="1.5"/>
<circle cx="59" cy="345" r="1.2" fill="#6b7789"/>
<rect x="71" y="328" width="213" height="34" rx="3" fill="#080f1a" stroke="#378ADD" stroke-width="0.5" stroke-opacity="0.35"/>
<rect x="71" y="328" width="3" height="34" rx="1" fill="#378ADD"/>
<text x="82" y="343" font-size="13" font-family="Segoe UI Emoji, Apple Color Emoji, sans-serif" dominant-baseline="middle">🏴‍☠️</text>
<text x="99" y="340" font-size="8" fill="#378ADD" font-family="Courier New, monospace" font-weight="700">(6)</text>
<text x="99" y="354" font-size="9.5" fill="#cdd2db" font-family="Courier New, monospace">Intrusion / Pivots</text>
<rect x="517" y="328" width="213" height="34" rx="3" fill="#180808" stroke="#E24B4A" stroke-width="0.5" stroke-opacity="0.35"/>
<rect x="517" y="328" width="3" height="34" rx="1" fill="#E24B4A"/>
<text x="528" y="343" font-size="13" font-family="Segoe UI Emoji, Apple Color Emoji, sans-serif" dominant-baseline="middle">💣</text>
<text x="545" y="340" font-size="8" fill="#E24B4A" font-family="Courier New, monospace" font-weight="700">(Y)</text>
<text x="545" y="354" font-size="9.5" fill="#cdd2db" font-family="Courier New, monospace">Braquage Bagnolet #2</text>
<rect x="0" y="367" width="960" height="44" fill="#0a0c10"/>
<rect x="66" y="367" width="223" height="44" fill="#080f1a" opacity="0.3"/>
<rect x="289" y="367" width="223" height="44" fill="#180f00" opacity="0.3"/>
<rect x="512" y="367" width="223" height="44" fill="#180808" opacity="0.3"/>
<rect x="735" y="367" width="223" height="44" fill="#041510" opacity="0.3"/>
<line x1="0" y1="411" x2="960" y2="411" stroke="#141820" stroke-width="1"/>
<line x1="289" y1="367" x2="289" y2="411" stroke="#141820" stroke-width="1"/>
<line x1="512" y1="367" x2="512" y2="411" stroke="#141820" stroke-width="1"/>
<line x1="735" y1="367" x2="735" y2="411" stroke="#141820" stroke-width="1"/>
<text x="44" y="393" font-size="11" fill="#6b7789" font-weight="700" text-anchor="end" font-family="Courier New, monospace">2018</text>
<line x1="59" y1="367" x2="59" y2="411" stroke="#1a1e26" stroke-width="1"/>
<circle cx="59" cy="389" r="3.5" fill="#1e2535" stroke="#3d4756" stroke-width="1.5"/>
<circle cx="59" cy="389" r="1.2" fill="#6b7789"/>
<rect x="71" y="372" width="213" height="34" rx="3" fill="#080f1a" stroke="#378ADD" stroke-width="0.5" stroke-opacity="0.35"/>
<rect x="71" y="372" width="3" height="34" rx="1" fill="#378ADD"/>
<text x="82" y="387" font-size="13" font-family="Segoe UI Emoji, Apple Color Emoji, sans-serif" dominant-baseline="middle">🏴‍☠️</text>
<text x="99" y="384" font-size="8" fill="#378ADD" font-family="Courier New, monospace" font-weight="700">(7)</text>
<text x="99" y="398" font-size="9.5" fill="#cdd2db" font-family="Courier New, monospace">TTPs origine état</text>
<rect x="0" y="411" width="960" height="44" fill="#0c0e13"/>
<rect x="66" y="411" width="223" height="44" fill="#080f1a" opacity="0.3"/>
<rect x="289" y="411" width="223" height="44" fill="#180f00" opacity="0.3"/>
<rect x="512" y="411" width="223" height="44" fill="#180808" opacity="0.3"/>
<rect x="735" y="411" width="223" height="44" fill="#041510" opacity="0.3"/>
<line x1="0" y1="455" x2="960" y2="455" stroke="#141820" stroke-width="1"/>
<line x1="289" y1="411" x2="289" y2="455" stroke="#141820" stroke-width="1"/>
<line x1="512" y1="411" x2="512" y2="455" stroke="#141820" stroke-width="1"/>
<line x1="735" y1="411" x2="735" y2="455" stroke="#141820" stroke-width="1"/>
<text x="44" y="437" font-size="11" fill="#6b7789" font-weight="700" text-anchor="end" font-family="Courier New, monospace">2019</text>
<line x1="59" y1="411" x2="59" y2="455" stroke="#1a1e26" stroke-width="1"/>
<circle cx="59" cy="433" r="3.5" fill="#1e2535" stroke="#3d4756" stroke-width="1.5"/>
<circle cx="59" cy="433" r="1.2" fill="#6b7789"/>
<rect x="71" y="416" width="213" height="34" rx="3" fill="#080f1a" stroke="#378ADD" stroke-width="0.5" stroke-opacity="0.35"/>
<rect x="71" y="416" width="3" height="34" rx="1" fill="#378ADD"/>
<text x="82" y="431" font-size="13" font-family="Segoe UI Emoji, Apple Color Emoji, sans-serif" dominant-baseline="middle">💥</text>
<text x="99" y="428" font-size="8" fill="#378ADD" font-family="Courier New, monospace" font-weight="700">(8)</text>
<text x="99" y="442" font-size="9.5" fill="#cdd2db" font-family="Courier New, monospace">Attaque infras.</text>
<rect x="0" y="455" width="960" height="44" fill="#0a0c10"/>
<rect x="66" y="455" width="223" height="44" fill="#080f1a" opacity="0.3"/>
<rect x="289" y="455" width="223" height="44" fill="#180f00" opacity="0.3"/>
<rect x="512" y="455" width="223" height="44" fill="#180808" opacity="0.3"/>
<rect x="735" y="455" width="223" height="44" fill="#041510" opacity="0.3"/>
<line x1="0" y1="499" x2="960" y2="499" stroke="#141820" stroke-width="1"/>
<line x1="289" y1="455" x2="289" y2="499" stroke="#141820" stroke-width="1"/>
<line x1="512" y1="455" x2="512" y2="499" stroke="#141820" stroke-width="1"/>
<line x1="735" y1="455" x2="735" y2="499" stroke="#141820" stroke-width="1"/>
<text x="44" y="481" font-size="11" fill="#6b7789" font-weight="700" text-anchor="end" font-family="Courier New, monospace">2020</text>
<line x1="59" y1="455" x2="59" y2="499" stroke="#1a1e26" stroke-width="1"/>
<circle cx="59" cy="477" r="3.5" fill="#1e2535" stroke="#3d4756" stroke-width="1.5"/>
<circle cx="59" cy="477" r="1.2" fill="#6b7789"/>
<rect x="71" y="460" width="213" height="34" rx="3" fill="#080f1a" stroke="#378ADD" stroke-width="0.5" stroke-opacity="0.35"/>
<rect x="71" y="460" width="3" height="34" rx="1" fill="#378ADD"/>
<text x="82" y="475" font-size="13" font-family="Segoe UI Emoji, Apple Color Emoji, sans-serif" dominant-baseline="middle">💥</text>
<text x="99" y="472" font-size="8" fill="#378ADD" font-family="Courier New, monospace" font-weight="700">(9)</text>
<text x="99" y="486" font-size="9.5" fill="#cdd2db" font-family="Courier New, monospace">Rapport Cyber 2020</text>
<rect x="517" y="460" width="213" height="34" rx="3" fill="#180808" stroke="#E24B4A" stroke-width="0.5" stroke-opacity="0.35"/>
<rect x="517" y="460" width="3" height="34" rx="1" fill="#E24B4A"/>
<text x="528" y="475" font-size="13" font-family="Segoe UI Emoji, Apple Color Emoji, sans-serif" dominant-baseline="middle">🧨</text>
<text x="545" y="472" font-size="8" fill="#E24B4A" font-family="Courier New, monospace" font-weight="700">(Z)</text>
<text x="545" y="486" font-size="9.5" fill="#cdd2db" font-family="Courier New, monospace">Braquage Reims #3</text>
<rect x="0" y="499" width="960" height="44" fill="#0c0e13"/>
<rect x="66" y="499" width="223" height="44" fill="#080f1a" opacity="0.3"/>
<rect x="289" y="499" width="223" height="44" fill="#180f00" opacity="0.3"/>
<rect x="512" y="499" width="223" height="44" fill="#180808" opacity="0.3"/>
<rect x="735" y="499" width="223" height="44" fill="#041510" opacity="0.3"/>
<line x1="0" y1="543" x2="960" y2="543" stroke="#141820" stroke-width="1"/>
<line x1="289" y1="499" x2="289" y2="543" stroke="#141820" stroke-width="1"/>
<line x1="512" y1="499" x2="512" y2="543" stroke="#141820" stroke-width="1"/>
<line x1="735" y1="499" x2="735" y2="543" stroke="#141820" stroke-width="1"/>
<text x="44" y="525" font-size="11" fill="#6b7789" font-weight="700" text-anchor="end" font-family="Courier New, monospace">2021</text>
<line x1="59" y1="499" x2="59" y2="543" stroke="#1a1e26" stroke-width="1"/>
<circle cx="59" cy="521" r="3.5" fill="#1e2535" stroke="#3d4756" stroke-width="1.5"/>
<circle cx="59" cy="521" r="1.2" fill="#6b7789"/>
<rect x="740" y="504" width="213" height="34" rx="3" fill="#061810" stroke="#5DCAA5" stroke-width="0.5" stroke-opacity="0.35"/>
<rect x="740" y="504" width="3" height="34" rx="1" fill="#5DCAA5"/>
<text x="751" y="519" font-size="13" font-family="Segoe UI Emoji, Apple Color Emoji, sans-serif" dominant-baseline="middle">🔍</text>
<text x="768" y="516" font-size="8" fill="#5DCAA5" font-family="Courier New, monospace" font-weight="700">(10)</text>
<text x="768" y="530" font-size="9.5" fill="#cdd2db" font-family="Courier New, monospace">Microsoft — APT41</text>
<rect x="0" y="543" width="960" height="44" fill="#0a0c10"/>
<rect x="66" y="543" width="223" height="44" fill="#080f1a" opacity="0.3"/>
<rect x="289" y="543" width="223" height="44" fill="#180f00" opacity="0.3"/>
<rect x="512" y="543" width="223" height="44" fill="#180808" opacity="0.3"/>
<rect x="735" y="543" width="223" height="44" fill="#041510" opacity="0.3"/>
<line x1="0" y1="587" x2="960" y2="587" stroke="#141820" stroke-width="1"/>
<line x1="289" y1="543" x2="289" y2="587" stroke="#141820" stroke-width="1"/>
<line x1="512" y1="543" x2="512" y2="587" stroke="#141820" stroke-width="1"/>
<line x1="735" y1="543" x2="735" y2="587" stroke="#141820" stroke-width="1"/>
<text x="44" y="569" font-size="11" fill="#6b7789" font-weight="700" text-anchor="end" font-family="Courier New, monospace">2022</text>
<line x1="59" y1="543" x2="59" y2="587" stroke="#1a1e26" stroke-width="1"/>
<circle cx="59" cy="565" r="3.5" fill="#1e2535" stroke="#3d4756" stroke-width="1.5"/>
<circle cx="59" cy="565" r="1.2" fill="#6b7789"/>
<rect x="71" y="548" width="213" height="34" rx="3" fill="#080f1a" stroke="#378ADD" stroke-width="0.5" stroke-opacity="0.35"/>
<rect x="71" y="548" width="3" height="34" rx="1" fill="#378ADD"/>
<text x="82" y="563" font-size="13" font-family="Segoe UI Emoji, Apple Color Emoji, sans-serif" dominant-baseline="middle">🛡️</text>
<text x="99" y="560" font-size="8" fill="#378ADD" font-family="Courier New, monospace" font-weight="700">(11)</text>
<text x="99" y="570" font-size="9" fill="#cdd2db" font-family="Courier New, monospace">1M+</text>
<text x="99" y="580" font-size="9" fill="#cdd2db" font-family="Courier New, monospace">attaques bloquées</text>
<rect x="740" y="548" width="213" height="34" rx="3" fill="#041510" stroke="#1D9E75" stroke-width="0.5" stroke-opacity="0.35"/>
<rect x="740" y="548" width="3" height="34" rx="1" fill="#1D9E75"/>
<text x="751" y="563" font-size="13" font-family="Segoe UI Emoji, Apple Color Emoji, sans-serif" dominant-baseline="middle">🕵️</text>
<text x="768" y="560" font-size="8" fill="#1D9E75" font-family="Courier New, monospace" font-weight="700">(12)</text>
<text x="768" y="574" font-size="9.5" fill="#cdd2db" font-family="Courier New, monospace">Rapport Mandiant</text>
<rect x="0" y="587" width="960" height="44" fill="#0c0e13"/>
<rect x="66" y="587" width="223" height="44" fill="#080f1a" opacity="0.3"/>
<rect x="289" y="587" width="223" height="44" fill="#180f00" opacity="0.3"/>
<rect x="512" y="587" width="223" height="44" fill="#180808" opacity="0.3"/>
<rect x="735" y="587" width="223" height="44" fill="#041510" opacity="0.3"/>
<line x1="0" y1="631" x2="960" y2="631" stroke="#141820" stroke-width="1"/>
<line x1="289" y1="587" x2="289" y2="631" stroke="#141820" stroke-width="1"/>
<line x1="512" y1="587" x2="512" y2="631" stroke="#141820" stroke-width="1"/>
<line x1="735" y1="587" x2="735" y2="631" stroke="#141820" stroke-width="1"/>
<text x="44" y="613" font-size="11" fill="#6b7789" font-weight="700" text-anchor="end" font-family="Courier New, monospace">2023</text>
<line x1="59" y1="587" x2="59" y2="631" stroke="#1a1e26" stroke-width="1"/>
<circle cx="59" cy="609" r="3.5" fill="#1e2535" stroke="#3d4756" stroke-width="1.5"/>
<circle cx="59" cy="609" r="1.2" fill="#6b7789"/>
<rect x="71" y="592" width="213" height="34" rx="3" fill="#080f1a" stroke="#378ADD" stroke-width="0.5" stroke-opacity="0.35"/>
<rect x="71" y="592" width="3" height="34" rx="1" fill="#378ADD"/>
<text x="82" y="607" font-size="13" font-family="Segoe UI Emoji, Apple Color Emoji, sans-serif" dominant-baseline="middle">🛡️</text>
<text x="99" y="604" font-size="8" fill="#378ADD" font-family="Courier New, monospace" font-weight="700">(13)</text>
<text x="99" y="618" font-size="9.5" fill="#cdd2db" font-family="Courier New, monospace">0 exfiltration</text>
<rect x="740" y="592" width="213" height="34" rx="3" fill="#041510" stroke="#1D9E75" stroke-width="0.5" stroke-opacity="0.35"/>
<rect x="740" y="592" width="3" height="34" rx="1" fill="#1D9E75"/>
<text x="751" y="607" font-size="13" font-family="Segoe UI Emoji, Apple Color Emoji, sans-serif" dominant-baseline="middle">🕵️</text>
<text x="768" y="604" font-size="8" fill="#1D9E75" font-family="Courier New, monospace" font-weight="700">(14)</text>
<text x="768" y="618" font-size="9.5" fill="#cdd2db" font-family="Courier New, monospace">CISA — APT41</text>
<rect x="0" y="631" width="960" height="44" fill="#0a0c10"/>
<rect x="66" y="631" width="223" height="44" fill="#080f1a" opacity="0.3"/>
<rect x="289" y="631" width="223" height="44" fill="#180f00" opacity="0.3"/>
<rect x="512" y="631" width="223" height="44" fill="#180808" opacity="0.3"/>
<rect x="735" y="631" width="223" height="44" fill="#041510" opacity="0.3"/>
<line x1="0" y1="675" x2="960" y2="675" stroke="#141820" stroke-width="1"/>
<line x1="289" y1="631" x2="289" y2="675" stroke="#141820" stroke-width="1"/>
<line x1="512" y1="631" x2="512" y2="675" stroke="#141820" stroke-width="1"/>
<line x1="735" y1="631" x2="735" y2="675" stroke="#141820" stroke-width="1"/>
<text x="44" y="657" font-size="11" fill="#6b7789" font-weight="700" text-anchor="end" font-family="Courier New, monospace">2024</text>
<line x1="59" y1="631" x2="59" y2="675" stroke="#1a1e26" stroke-width="1"/>
<circle cx="59" cy="653" r="3.5" fill="#1e2535" stroke="#3d4756" stroke-width="1.5"/>
<circle cx="59" cy="653" r="1.2" fill="#6b7789"/>
<rect x="740" y="636" width="213" height="34" rx="3" fill="#041510" stroke="#1D9E75" stroke-width="0.5" stroke-opacity="0.35"/>
<rect x="740" y="636" width="3" height="34" rx="1" fill="#1D9E75"/>
<text x="751" y="651" font-size="13" font-family="Segoe UI Emoji, Apple Color Emoji, sans-serif" dominant-baseline="middle">📄</text>
<text x="768" y="648" font-size="8" fill="#1D9E75" font-family="Courier New, monospace" font-weight="700">(15)</text>
<text x="768" y="662" font-size="9.5" fill="#cdd2db" font-family="Courier New, monospace">ANSSI — Logistique</text>
<rect x="0" y="675" width="960" height="81" fill="#0c0e13"/>
<rect x="66" y="675" width="223" height="81" fill="#080f1a" opacity="0.3"/>
<rect x="289" y="675" width="223" height="81" fill="#180f00" opacity="0.3"/>
<rect x="512" y="675" width="223" height="81" fill="#180808" opacity="0.3"/>
<rect x="735" y="675" width="223" height="81" fill="#041510" opacity="0.3"/>
<line x1="0" y1="756" x2="960" y2="756" stroke="#141820" stroke-width="1"/>
<line x1="289" y1="675" x2="289" y2="756" stroke="#141820" stroke-width="1"/>
<line x1="512" y1="675" x2="512" y2="756" stroke="#141820" stroke-width="1"/>
<line x1="735" y1="675" x2="735" y2="756" stroke="#141820" stroke-width="1"/>
<text x="44" y="719" font-size="11" fill="#6b7789" font-weight="700" text-anchor="end" font-family="Courier New, monospace">2025</text>
<line x1="59" y1="675" x2="59" y2="756" stroke="#1a1e26" stroke-width="1"/>
<circle cx="59" cy="715" r="3.5" fill="#1e2535" stroke="#3d4756" stroke-width="1.5"/>
<circle cx="59" cy="715" r="1.2" fill="#6b7789"/>
<rect x="294" y="680" width="213" height="34" rx="3" fill="#180f00" stroke="#EF9F27" stroke-width="0.5" stroke-opacity="0.35"/>
<rect x="294" y="680" width="3" height="34" rx="1" fill="#EF9F27"/>
<text x="305" y="695" font-size="13" font-family="Segoe UI Emoji, Apple Color Emoji, sans-serif" dominant-baseline="middle">🚔</text>
<text x="322" y="692" font-size="8" fill="#EF9F27" font-family="Courier New, monospace" font-weight="700">(16)</text>
<text x="322" y="706" font-size="9.5" fill="#cdd2db" font-family="Courier New, monospace">Saisie 66 kg (Chine)</text>
<rect x="294" y="717" width="213" height="34" rx="3" fill="#180f00" stroke="#EF9F27" stroke-width="0.5" stroke-opacity="0.35"/>
<rect x="294" y="717" width="3" height="34" rx="1" fill="#EF9F27"/>
<text x="305" y="732" font-size="13" font-family="Segoe UI Emoji, Apple Color Emoji, sans-serif" dominant-baseline="middle">👮</text>
<text x="322" y="729" font-size="8" fill="#EF9F27" font-family="Courier New, monospace" font-weight="700">(17)</text>
<text x="322" y="743" font-size="9.5" fill="#cdd2db" font-family="Courier New, monospace">Synthèse ONAF</text>
<line x1="0" y1="760" x2="960" y2="760" stroke="#1a1e26" stroke-width="0.5"/>
<text x="944" y="770" font-size="8.5" fill="#252c38" text-anchor="end" font-family="Courier New, monospace">Actif 5,7 Mds€ · 2013–2025</text>
</svg>